<svg xmlns="http://www.w3.org/2000/svg" viewBox="0 0 512 512" width="100%" height="100%">
  <defs>
    <filter id="drop-shadow" x="-10%" y="-10%" width="130%" height="130%">
      <feDropShadow dx="0" dy="12" stdDeviation="16" flood-color="#524F4F" flood-opacity="0.18"/>
    </filter>
  </defs>

  <rect x="32" y="32" width="448" height="448" rx="100" fill="#FFFFFF" filter="url(#drop-shadow)"/>

  <path d="M 132 32 
           L 380 32 
           A 100 100 0 0 1 480 132 
           L 480 256 
           L 32 256 
           L 32 132
           A 100 100 0 0 1 132 32 Z" 
        fill="#94C11F"/>

  <path d="M 32 256 
           L 480 256 
           L 480 380
           A 100 100 0 0 1 380 480
           L 132 480
           A 100 100 0 0 1 32 380 Z" 
        fill="#524F4F"/>

  <path d="M 340 256 
           C 340 180, 305 140, 256 140 
           C 205 140, 165 185, 165 256 
           C 165 327, 205 372, 256 372 
           C 300 372, 330 345, 338 315 
           L 292 315 
           C 287 325, 276 332, 256 332 
           C 228 332, 211 310, 209 278 
           L 340 278 
           C 340 272, 340 265, 340 256 Z 
           M 209 234 
           C 212 204, 228 180, 256 180 
           C 284 180, 297 204, 299 234 
           L 209 234 Z" 
        fill="#FFFFFF"/>
</svg>
